HIERARCHY
ROOT ui
{
	 OFFSET 0 0 0
	 CHANNELS 3 XPosition YPosition Z Position
	 EndSite
	 {
	 OFFSET 0 -1 0
	 }
}
ROOT li
{
	 OFFSET 0 0 0
	 CHANNELS 3 XPosition YPosition Z Position
	 EndSite
	 {
	 OFFSET 0 -1 0
	 }
}
ROOT ul
{
	 OFFSET 0 0 0
	 CHANNELS 3 XPosition YPosition Z Position
	 EndSite
	 {
	 OFFSET 0 -1 0
	 }
}
ROOT ll
{
	 OFFSET 0 0 0
	 CHANNELS 3 XPosition YPosition Z Position
	 EndSite
	 {
	 OFFSET 0 -1 0
	 }
}
ROOT tt
{
	 OFFSET 0 0 0
	 CHANNELS 3 XPosition YPosition Z Position
	 EndSite
	 {
	 OFFSET 0 -1 0
	 }
}
ROOT tb
{
	 OFFSET 0 0 0
	 CHANNELS 3 XPosition YPosition Z Position
	 EndSite
	 {
	 OFFSET 0 -1 0
	 }
}
ROOT td
{
	 OFFSET 0 0 0
	 CHANNELS 3 XPosition YPosition Z Position
	 EndSite
	 {
	 OFFSET 0 -1 0
	 }
}
ROOT v
{
	 OFFSET 0 0 0
	 CHANNELS 3 XPosition YPosition Z Position
	 EndSite
	 {
	 OFFSET 0 -1 0
	 }
}
ROOT bn
{
	 OFFSET 0 0 0
	 CHANNELS 3 XPosition YPosition Z Position
	 EndSite
	 {
	 OFFSET 0 -1 0
	 }
}
MOTION
Frames: 21
Frame Time: 0.002
-0.0012991039752960206	6.602389812469482E-4	0		0.49995925903320315	-2.314717529296875	0		-1.102835693359375	-0.015534695625305175	0		-0.6820763549804687	-2.355323486328125	0		1.666680908203125	-0.5724747924804687	0		3.200736572265625	0.12229012298583984	0		4.63793017578125	0.31987527465820315	0		5.581255859375	0.19148851013183593	0		-0.3123673095703125	5.90997705078125	0		
0.007052708148956299	-0.0016142419576644898	0		0.4571859130859375	-2.31800048828125	0		-1.1034429931640626	-0.015585573196411132	0		-0.7387692260742188	-2.35428076171875	0		1.668109619140625	-0.56968017578125	0		3.200134765625	0.12206169891357421	0		4.63733642578125	0.31958755493164065	0		5.57664013671875	0.20324424743652345	0		-0.31175030517578123	5.9088740234375	0		
0.0064423389434814455	-0.001703855037689209	0		0.48347723388671876	-2.318644775390625	0		-1.094095703125	-0.01782902145385742	0		-0.7384344482421875	-2.352360595703125	0		1.6384622802734374	-0.570259765625	0		3.2129443359375	0.14258135986328124	0		4.63673876953125	0.3193121337890625	0		5.57620166015625	0.20270973205566406	0		-0.29792745971679685	5.9185166015625	0		
9.370239973068238E-4	0.0033121700286865233	0		0.46092572021484374	-2.31130908203125	0		-1.0965225830078125	-0.00883107089996338	0		-0.7350521850585937	-2.348494873046875	0		1.669927734375	-0.566043701171875	0		3.20788671875	0.11945928192138672	0		4.6361455078125	0.31905087280273436	0		5.58289794921875	0.20185736083984376	0		-0.29928475952148437	5.9194658203125	0		
0.005241864204406739	-0.0018619279861450196	0		0.5080372009277344	-2.322357177734375	0		-1.1052554931640626	-0.01570505428314209	0		-0.73981201171875	-2.352462646484375	0		1.666233154296875	-0.57011962890625	0		3.225572265625	0.13290420532226563	0		4.62456494140625	0.31902481079101563	0		5.58247119140625	0.20137881469726562	0		-0.3128787841796875	5.9086630859375	0		
0.004664443969726563	-0.0019303569793701172	0		0.45650961303710935	-2.315424560546875	0		-1.1058333740234374	-0.015735051155090333	0		-0.7045379028320312	-2.356224365234375	0		1.6656361083984375	-0.5702455444335938	0		3.200864501953125	0.12620547485351563	0		4.63499609375	0.3185766296386719	0		5.5779208984375	0.21843663024902343	0		-0.3142314758300781	5.90962548828125	0		
-7.897970080375671E-4	0.0031074559688568115	0		0.506749267578125	-2.3225205078125	0		-1.10638916015625	-0.015760517120361327	0		-0.7411019287109375	-2.35254248046875	0		1.62810986328125	-0.5676200561523438	0		3.197213623046875	0.12110213470458984	0		4.62829248046875	0.3104877014160156	0		5.57452734375	0.20086729431152345	0		-0.2994189147949219	5.91827197265625	0		
0.0035799310207366942	-0.0020456600189208986	0		0.4661391296386719	-2.322787109375	0		-1.0929014892578126	-0.015062445640563965	0		-0.7247645263671875	-2.355914794921875	0		1.6793128662109376	-0.5807625732421875	0		3.214604248046875	0.11659311676025391	0		4.6250537109375	0.32435360717773437	0		5.5741474609375	0.20049284362792968	0		-0.29781265258789064	5.9161875	0		
0.009219746589660644	0.004785786151885987	0		0.5107284240722656	-2.31575146484375	0		-1.0952203369140625	-0.006041129112243652	0		-0.7341050415039062	-2.34476318359375	0		1.673220458984375	-0.55973828125	0		3.231626708984375	0.14211305236816407	0		4.635541015625	0.3229613037109375	0		5.57970849609375	0.22582330322265626	0		-0.2991318664550781	5.9171689453125	0		
-0.0022854020595550538	0.002967573881149292	0		0.48117047119140627	-2.317219970703125	0		-1.1078863525390625	-0.015810752868652345	0		-0.6668038940429688	-2.354150146484375	0		1.66660009765625	-0.566696533203125	0		3.184830322265625	0.12592306518554688	0		4.6329814453125	0.3178502197265625	0		5.58058544921875	0.19951010131835936	0		-0.30043490600585937	5.91815625	0		
0.0021795079708099366	-0.0021652328968048097	0		0.5045812072753906	-2.32274560546875	0		-1.1083201904296875	-0.015819977760314942	0		-0.737153564453125	-2.346761474609375	0		1.666154296875	-0.566765869140625	0		3.198396728515625	0.12553901672363282	0		4.6325546875	0.31771652221679686	0		5.57314306640625	0.19959521484375	0		-0.31493850708007814	5.90841357421875	0		
0.0017807049751281739	-0.002193406105041504	0		0.4532691650390625	-2.31575732421875	0		-1.10871923828125	-0.01582688236236572	0		-0.7047046508789062	-2.352439208984375	0		1.6626646728515626	-0.5707647094726562	0		3.203858154296875	0.11833019256591797	0		4.626001953125	0.30972216796875	0		5.57703564453125	0.18704875183105468	0		-0.3152240905761719	5.9083916015625	0		
-0.0034807870388031004	0.002882211923599243	0		0.4549070739746094	-2.313829833984375	0		-1.10218505859375	-0.02097257995605469	0		-0.7708922729492188	-2.341123046875	0		1.6304798583984375	-0.56117333984375	0		3.21691748046875	0.1389861145019531	0		4.633904296875	0.32245672607421877	0		5.5755498046875	0.21113343811035157	0		-0.301289794921875	5.91808837890625	0		
0.007230151176452637	0.004638710975646973	0		0.4815208740234375	-2.315402099609375	0		-1.1053504638671876	-0.012919038772583007	0		-0.68851220703125	-2.35480517578125	0		1.668096435546875	-0.5639842529296875	0		3.206271728515625	0.12312358093261719	0		4.6397421875	0.33024609375	0		5.5794931640625	0.1986434783935547	0		-0.3015317993164062	5.9180712890625	0		
7.992510199546814E-4	-0.0022585740089416505	0		0.4771218566894531	-2.31934619140625	0		-1.1097012939453126	-0.015843947410583495	0		-0.7366403198242187	-2.344849365234375	0		1.66473876953125	-0.5669631958007812	0		3.229361083984375	0.14159657287597657	0		4.6250341796875	0.3094566955566406	0		5.572154296875	0.198843017578125	0		-0.30175051879882814	5.91805517578125	0		
-0.004353486061096192	0.002821197986602783	0		0.5027776794433594	-2.322895751953125	0		-1.1099561767578126	-0.015852855682373046	0		-0.6670543212890625	-2.352274658203125	0		1.664478271484375	-0.567000244140625	0		3.20087109375	0.13011154174804687	0		4.63094287109375	0.31726669311523437	0		5.5749677734375	0.21586871337890626	0		-0.31712380981445315	5.9093427734375	0		
-0.0027344210147857667	-0.005240304946899414	0		0.45167108154296876	-2.315893310546875	0		-1.1101751708984375	-0.015866379737854003	0		-0.7371572875976562	-2.344878662109375	0		1.664254638671875	-0.567036865234375	0		3.2006533203125	0.1300621337890625	0		4.61972900390625	0.3174276428222656	0		5.57181494140625	0.19859391784667968	0		-0.3163139343261719	5.908302734375	0		
1.4253699779510497E-4	-0.002328843116760254	0		0.4882629699707031	-2.32666943359375	0		-1.1004007568359375	-0.0180880184173584	0		-0.7224398193359375	-2.34920361328125	0		1.63225634765625	-0.5574302978515625	0		3.22012353515625	0.11261278533935547	0		4.619224609375	0.3013728942871094	0		5.57168310546875	0.19848381042480467	0		-0.30127886962890627	5.91697265625	0		
0.006136147975921631	0.00451502799987793	0		0.4584946594238281	-2.307102783203125	0		-1.09648779296875	-0.015197274208068847	0		-0.7313944702148437	-2.33905322265625	0		1.67311865234375	-0.5573011474609375	0		3.202708984375	0.14891949462890625	0		4.6318046875	0.33706594848632815	0		5.57749951171875	0.22404261779785156	0		-0.3013952941894531	5.91694091796875	0		
-1.1413799971342087E-4	-0.0024030070304870603	0		0.5020637817382813	-2.323031982421875	0		-1.1106151123046875	-0.01595065689086914	0		-0.73559326171875	-2.343009765625	0		1.6258543701171875	-0.5643961791992187	0		3.1869755859375	0.11817642211914063	0		4.6302919921875	0.3170321960449219	0		5.57150048828125	0.19827192687988282	0		-0.30246279907226564	5.91792138671875	0		
-1.8764999508857726E-4	-0.002452436923980713	0		0.4511160888671875	-2.316052490234375	0		-1.110688720703125	-0.015997243881225587	0		-0.7027806396484375	-2.3487236328125	0		1.663731201171875	-0.5672178344726563	0		3.200142578125	0.1298534698486328	0		4.63021923828125	0.3169709167480469	0		5.57857861328125	0.19781234741210937	0		-0.31672052001953127	5.90815771484375	0		
